<svg width="64" height="64" viewBox="0 0 64 64" fill="none" xmlns="http://www.w3.org/2000/svg">
<g clip-path="url(#clip0)">
<path d="M51.3347 12.0211C46.2232 4.26947 39.2758 0 31.7768 0C24.7326 0 18.0884 4.26526 13.0737 12.0042C8.57684 18.9474 6 27.7684 6 36.2063C6 43.92 8.15158 50.5642 12.2147 55.4147C16.9263 61.0316 24.1053 64 32.9768 64C41.2926 64 48.0589 61.0232 52.5432 55.3895C56.4126 50.5263 58.4547 43.9242 58.4547 36.2863C58.4547 27.7263 55.8568 18.88 51.3347 12.0211ZM48.4716 52.1516C44.96 56.5642 39.7474 58.8 32.9768 58.8C25.5916 58.8 19.9453 56.5347 16.2021 52.0716C12.9305 48.1684 11.2 42.6821 11.2 36.2063C11.2 21.8695 20.1895 5.2 31.7768 5.2C44.4337 5.2 53.2547 21.5832 53.2547 36.2863C53.2547 42.7368 51.6 48.2189 48.4716 52.1516Z" fill="#4758A4"/>
<path d="M32.4218 22.5137C28.7502 22.5137 25.7018 23.7221 23.2766 26.1305C20.8513 28.5431 19.6387 31.4989 19.6387 35.0063C19.6387 38.5095 20.8513 41.461 23.2766 43.861C25.7018 46.2568 28.7502 47.4568 32.4218 47.4568C36.0934 47.4568 39.1418 46.261 41.5671 43.861C43.9924 41.4652 45.2092 38.5137 45.2092 35.0063C45.2092 31.4989 43.9966 28.5431 41.5671 26.1305C39.1418 23.7221 36.0934 22.5137 32.4218 22.5137ZM37.2513 40.4168C35.9924 41.8105 34.3839 42.5052 32.4218 42.5052C30.4597 42.5052 28.8513 41.8105 27.5924 40.4168C26.3334 39.0274 25.706 37.2253 25.706 35.0105C25.706 32.7958 26.3334 30.9852 27.5924 29.5789C28.8513 28.1726 30.4597 27.4653 32.4218 27.4653C34.3839 27.4653 35.9924 28.1684 37.2513 29.5789C38.5102 30.9852 39.1376 32.7958 39.1376 35.0105C39.1376 37.2253 38.506 39.0274 37.2513 40.4168Z" fill="#4758A4"/>
</g>
<defs>
<clipPath id="clip0">
<rect width="64" height="64" fill="white"/>
</clipPath>
</defs>
</svg>
