<svg width="52" height="52" viewBox="0 0 52 52" fill="none" xmlns="http://www.w3.org/2000/svg">
<circle cx="26" cy="26" r="26" fill="#DDE0F4"/>
<circle cx="26" cy="26" r="15" fill="#3D4EB8"/>
<path d="M29.8578 21.2859L25.1305 32.4287H23.6096L28.3213 21.6815H22.1436V20.4287H29.8578V21.2859Z" fill="#DDE0F4"/>
<path fill-rule="evenodd" clip-rule="evenodd" d="M24.8885 14.9632C27.5122 14.7575 30.125 15.4769 32.2737 16.9964C34.3494 18.4643 35.8653 20.5894 36.5793 23.0239H35.4495C35.0646 23.0239 34.824 23.4406 35.0165 23.7739L36.7279 26.7382C36.9204 27.0715 37.4015 27.0715 37.5939 26.7382L39.3054 23.7739C39.4978 23.4406 39.2573 23.0239 38.8724 23.0239H37.6178C37.6178 23.0238 37.6178 23.0237 37.6177 23.0236C36.877 20.2556 35.1906 17.8344 32.8511 16.18C30.5117 14.5255 27.6669 13.7423 24.8104 13.9662C21.9538 14.1901 19.2658 15.407 17.2127 17.4057C15.1596 19.4045 13.871 22.0589 13.5706 24.9084C13.2701 27.7579 13.9767 30.6227 15.5678 33.0057C17.1589 35.3887 19.534 37.1394 22.281 37.9542C25.0281 38.7689 27.9737 38.5963 30.6067 37.4661C33.2397 36.336 35.394 34.3197 36.6958 31.7672C36.8212 31.5212 36.7235 31.2201 36.4775 31.0946C36.2315 30.9692 35.9304 31.0669 35.805 31.3129C34.6093 33.6573 32.6307 35.5092 30.2123 36.5472C27.7939 37.5852 25.0885 37.7438 22.5654 36.9954C20.0423 36.2471 17.8608 34.6391 16.3995 32.4504C14.9381 30.2617 14.2891 27.6305 14.5651 25.0133C14.841 22.3961 16.0245 19.958 17.9102 18.1223C19.7959 16.2865 22.2648 15.1688 24.8885 14.9632Z" fill="#DDE0F4"/>
</svg>
