<svg width="50" height="50" viewBox="0 0 50 50" fill="none" xmlns="http://www.w3.org/2000/svg">
<circle cx="25" cy="25" r="24" stroke="#DDE0F4" stroke-width="2"/>
<circle cx="25" cy="25" r="24" stroke="white" stroke-opacity="0.12" stroke-width="2"/>
<circle cx="25" cy="25" r="15" fill="#9FA8DA"/>
<path d="M28.8569 20.2859L24.1295 31.4287H22.6086L27.3203 20.6815H21.1426V19.4287H28.8569V20.2859Z" fill="#333333"/>
<path fill-rule="evenodd" clip-rule="evenodd" d="M23.9246 14.4615C26.4319 14.265 28.9288 14.9524 30.9821 16.4045C32.7267 17.6383 34.0575 19.3579 34.8171 21.3372C35.0031 21.822 34.4913 22.5777 34.7509 23.0273L35.8661 24.959C36.0586 25.2924 36.5397 25.2924 36.7322 24.959L37.8474 23.0273C38.0399 22.694 37.7993 22.2773 37.4144 22.2773C37.2604 22.2773 37.1438 22.1402 37.1183 21.9883C37.113 21.9569 37.1062 21.9255 37.0978 21.8942C36.3268 19.0134 34.5717 16.4935 32.1369 14.7716C29.7021 13.0498 26.7414 12.2346 23.7684 12.4676C20.7954 12.7007 17.9977 13.9672 15.861 16.0474C13.7242 18.1276 12.3831 20.8902 12.0704 23.8559C11.7577 26.8215 12.4931 29.8031 14.149 32.2832C15.805 34.7633 18.2769 36.5854 21.1359 37.4334C23.9949 38.2814 27.0606 38.1017 29.801 36.9255C32.5413 35.7493 34.7835 33.6508 36.1383 30.9942C36.3892 30.5022 36.1938 29.9 35.7018 29.6491C35.2098 29.3982 34.6075 29.5936 34.3566 30.0856C33.214 32.326 31.3232 34.0957 29.0121 35.0876C26.7011 36.0795 24.1157 36.2311 21.7046 35.516C19.2935 34.8008 17.2089 33.2642 15.8124 31.1726C14.4159 29.0811 13.7957 26.5666 14.0594 24.0656C14.3231 21.5645 15.4541 19.2347 17.2561 17.4804C19.0581 15.7261 21.4174 14.658 23.9246 14.4615Z" fill="#333333"/>
</svg>
